<mxfile host="app.diagrams.net" agent="Mozilla/5.0 (Windows NT 10.0; Win64; x64) AppleWebKit/537.36 (KHTML, like Gecko) Chrome/129.0.0.0 Safari/537.36" version="24.7.16">
  <diagram name="Page-1" id="zdLS6XzUSG3x8lp1yBCd">
    <mxGraphModel dx="1434" dy="841" grid="1" gridSize="10" guides="1" tooltips="1" connect="1" arrows="1" fold="1" page="1" pageScale="1" pageWidth="827" pageHeight="1169" background="none" math="0" shadow="0">
      <root>
        <mxCell id="0" />
        <mxCell id="1" parent="0" />
        <mxCell id="_PjYLiZ7u1xAUvMMXe8_-5" value="&lt;font face=&quot;Helvetica&quot; style=&quot;font-size: 24px;&quot;&gt;4&lt;/font&gt;" style="ellipse;whiteSpace=wrap;html=1;aspect=fixed;strokeWidth=2;" parent="1" vertex="1">
          <mxGeometry x="160" y="80" width="40" height="40" as="geometry" />
        </mxCell>
        <mxCell id="3nH2F0Kgi0OkO7_tEUe0-1" value="&lt;font face=&quot;Helvetica&quot; style=&quot;font-size: 24px;&quot;&gt;3&lt;/font&gt;" style="ellipse;whiteSpace=wrap;html=1;aspect=fixed;strokeWidth=2;" parent="1" vertex="1">
          <mxGeometry x="240" y="80" width="40" height="40" as="geometry" />
        </mxCell>
        <mxCell id="3nH2F0Kgi0OkO7_tEUe0-2" value="&lt;font face=&quot;Helvetica&quot; style=&quot;font-size: 24px;&quot;&gt;5&lt;/font&gt;" style="ellipse;whiteSpace=wrap;html=1;aspect=fixed;strokeWidth=2;" parent="1" vertex="1">
          <mxGeometry x="400" y="80" width="40" height="40" as="geometry" />
        </mxCell>
        <mxCell id="3nH2F0Kgi0OkO7_tEUe0-3" value="&lt;font face=&quot;Helvetica&quot; style=&quot;font-size: 24px;&quot;&gt;3&lt;/font&gt;" style="ellipse;whiteSpace=wrap;html=1;aspect=fixed;strokeWidth=2;" parent="1" vertex="1">
          <mxGeometry x="480" y="80" width="40" height="40" as="geometry" />
        </mxCell>
        <mxCell id="3nH2F0Kgi0OkO7_tEUe0-4" value="&lt;font face=&quot;Helvetica&quot; style=&quot;font-size: 24px;&quot;&gt;7&lt;/font&gt;" style="ellipse;whiteSpace=wrap;html=1;aspect=fixed;strokeWidth=2;" parent="1" vertex="1">
          <mxGeometry x="120" y="240" width="40" height="40" as="geometry" />
        </mxCell>
        <mxCell id="3nH2F0Kgi0OkO7_tEUe0-5" value="&lt;font face=&quot;Helvetica&quot; style=&quot;font-size: 24px;&quot;&gt;6&lt;/font&gt;" style="ellipse;whiteSpace=wrap;html=1;aspect=fixed;strokeWidth=2;" parent="1" vertex="1">
          <mxGeometry x="200" y="240" width="40" height="40" as="geometry" />
        </mxCell>
        <mxCell id="3nH2F0Kgi0OkO7_tEUe0-6" value="&lt;font face=&quot;Helvetica&quot; style=&quot;font-size: 24px;&quot;&gt;3&lt;/font&gt;" style="ellipse;whiteSpace=wrap;html=1;aspect=fixed;strokeWidth=2;" parent="1" vertex="1">
          <mxGeometry x="280" y="240" width="40" height="40" as="geometry" />
        </mxCell>
        <mxCell id="3nH2F0Kgi0OkO7_tEUe0-7" value="&lt;font face=&quot;Helvetica&quot; style=&quot;font-size: 24px;&quot;&gt;1&lt;/font&gt;" style="ellipse;whiteSpace=wrap;html=1;aspect=fixed;strokeWidth=2;" parent="1" vertex="1">
          <mxGeometry x="400" y="240" width="40" height="40" as="geometry" />
        </mxCell>
        <mxCell id="3nH2F0Kgi0OkO7_tEUe0-8" value="&lt;font face=&quot;Helvetica&quot; style=&quot;font-size: 24px;&quot;&gt;3&lt;/font&gt;" style="ellipse;whiteSpace=wrap;html=1;aspect=fixed;strokeWidth=2;" parent="1" vertex="1">
          <mxGeometry x="480" y="240" width="40" height="40" as="geometry" />
        </mxCell>
        <mxCell id="3nH2F0Kgi0OkO7_tEUe0-9" value="&lt;font face=&quot;Helvetica&quot; style=&quot;font-size: 24px;&quot;&gt;1&lt;/font&gt;" style="ellipse;whiteSpace=wrap;html=1;aspect=fixed;strokeWidth=2;" parent="1" vertex="1">
          <mxGeometry x="600" y="239" width="40" height="40" as="geometry" />
        </mxCell>
        <mxCell id="3nH2F0Kgi0OkO7_tEUe0-10" value="&lt;font face=&quot;Helvetica&quot; style=&quot;font-size: 24px;&quot;&gt;10&lt;/font&gt;" style="ellipse;whiteSpace=wrap;html=1;aspect=fixed;strokeWidth=2;" parent="1" vertex="1">
          <mxGeometry x="680" y="239" width="40" height="40" as="geometry" />
        </mxCell>
        <mxCell id="3nH2F0Kgi0OkO7_tEUe0-11" value="&lt;font face=&quot;Helvetica&quot; style=&quot;font-size: 24px;&quot;&gt;0&lt;/font&gt;" style="ellipse;whiteSpace=wrap;html=1;aspect=fixed;strokeWidth=2;" parent="1" vertex="1">
          <mxGeometry x="120" y="400" width="40" height="40" as="geometry" />
        </mxCell>
        <mxCell id="3nH2F0Kgi0OkO7_tEUe0-12" value="&lt;font face=&quot;Helvetica&quot; style=&quot;font-size: 24px;&quot;&gt;1&lt;/font&gt;" style="ellipse;whiteSpace=wrap;html=1;aspect=fixed;strokeWidth=2;" parent="1" vertex="1">
          <mxGeometry x="200" y="400" width="40" height="40" as="geometry" />
        </mxCell>
        <mxCell id="3nH2F0Kgi0OkO7_tEUe0-13" value="&lt;font face=&quot;Helvetica&quot; style=&quot;font-size: 24px;&quot;&gt;2&lt;/font&gt;" style="ellipse;whiteSpace=wrap;html=1;aspect=fixed;strokeWidth=2;" parent="1" vertex="1">
          <mxGeometry x="280" y="400" width="40" height="40" as="geometry" />
        </mxCell>
        <mxCell id="3nH2F0Kgi0OkO7_tEUe0-14" value="&lt;font face=&quot;Helvetica&quot; style=&quot;font-size: 24px;&quot;&gt;9&lt;/font&gt;" style="ellipse;whiteSpace=wrap;html=1;aspect=fixed;strokeWidth=2;" parent="1" vertex="1">
          <mxGeometry x="600" y="79" width="40" height="40" as="geometry" />
        </mxCell>
        <mxCell id="3nH2F0Kgi0OkO7_tEUe0-15" value="&lt;font face=&quot;Helvetica&quot; style=&quot;font-size: 24px;&quot;&gt;6&lt;/font&gt;" style="ellipse;whiteSpace=wrap;html=1;aspect=fixed;strokeWidth=2;" parent="1" vertex="1">
          <mxGeometry x="680" y="79" width="40" height="40" as="geometry" />
        </mxCell>
        <mxCell id="3nH2F0Kgi0OkO7_tEUe0-16" value="&lt;font face=&quot;Helvetica&quot; style=&quot;font-size: 24px;&quot;&gt;0&lt;/font&gt;" style="ellipse;whiteSpace=wrap;html=1;aspect=fixed;strokeWidth=2;" parent="1" vertex="1">
          <mxGeometry x="400" y="400" width="40" height="40" as="geometry" />
        </mxCell>
        <mxCell id="3nH2F0Kgi0OkO7_tEUe0-17" value="&lt;font face=&quot;Helvetica&quot; style=&quot;font-size: 24px;&quot;&gt;8&lt;/font&gt;" style="ellipse;whiteSpace=wrap;html=1;aspect=fixed;strokeWidth=2;" parent="1" vertex="1">
          <mxGeometry x="480" y="400" width="40" height="40" as="geometry" />
        </mxCell>
        <mxCell id="3nH2F0Kgi0OkO7_tEUe0-20" value="" style="curved=1;endArrow=classic;html=1;rounded=0;exitX=1;exitY=0;exitDx=0;exitDy=0;entryX=0;entryY=0;entryDx=0;entryDy=0;strokeWidth=2;" parent="1" source="_PjYLiZ7u1xAUvMMXe8_-5" target="3nH2F0Kgi0OkO7_tEUe0-1" edge="1">
          <mxGeometry width="50" height="50" relative="1" as="geometry">
            <mxPoint x="680" y="210" as="sourcePoint" />
            <mxPoint x="610" y="170" as="targetPoint" />
            <Array as="points">
              <mxPoint x="220" y="60" />
            </Array>
          </mxGeometry>
        </mxCell>
        <mxCell id="3nH2F0Kgi0OkO7_tEUe0-22" value="" style="curved=1;endArrow=classic;html=1;rounded=0;exitX=1;exitY=0;exitDx=0;exitDy=0;entryX=0;entryY=0;entryDx=0;entryDy=0;strokeWidth=2;" parent="1" source="3nH2F0Kgi0OkO7_tEUe0-14" target="3nH2F0Kgi0OkO7_tEUe0-15" edge="1">
          <mxGeometry width="50" height="50" relative="1" as="geometry">
            <mxPoint x="638" y="85" as="sourcePoint" />
            <mxPoint x="690" y="85" as="targetPoint" />
            <Array as="points">
              <mxPoint x="660" y="60" />
            </Array>
          </mxGeometry>
        </mxCell>
        <mxCell id="3nH2F0Kgi0OkO7_tEUe0-24" value="" style="curved=1;endArrow=classic;html=1;rounded=0;exitX=1;exitY=0;exitDx=0;exitDy=0;entryX=0;entryY=0;entryDx=0;entryDy=0;strokeWidth=2;" parent="1" source="3nH2F0Kgi0OkO7_tEUe0-7" target="3nH2F0Kgi0OkO7_tEUe0-8" edge="1">
          <mxGeometry width="50" height="50" relative="1" as="geometry">
            <mxPoint x="444" y="136" as="sourcePoint" />
            <mxPoint x="496" y="136" as="targetPoint" />
            <Array as="points">
              <mxPoint x="460" y="220" />
            </Array>
          </mxGeometry>
        </mxCell>
        <mxCell id="3nH2F0Kgi0OkO7_tEUe0-25" value="" style="curved=1;endArrow=classic;html=1;rounded=0;exitX=1;exitY=0;exitDx=0;exitDy=0;entryX=0;entryY=0;entryDx=0;entryDy=0;strokeWidth=2;" parent="1" source="3nH2F0Kgi0OkO7_tEUe0-11" target="3nH2F0Kgi0OkO7_tEUe0-13" edge="1">
          <mxGeometry width="50" height="50" relative="1" as="geometry">
            <mxPoint x="214" y="186" as="sourcePoint" />
            <mxPoint x="266" y="186" as="targetPoint" />
            <Array as="points">
              <mxPoint x="220" y="340" />
            </Array>
          </mxGeometry>
        </mxCell>
        <mxCell id="3nH2F0Kgi0OkO7_tEUe0-27" value="" style="curved=1;endArrow=classic;html=1;rounded=0;exitX=1;exitY=0;exitDx=0;exitDy=0;entryX=0;entryY=0;entryDx=0;entryDy=0;strokeWidth=2;" parent="1" source="3nH2F0Kgi0OkO7_tEUe0-11" target="3nH2F0Kgi0OkO7_tEUe0-12" edge="1">
          <mxGeometry width="50" height="50" relative="1" as="geometry">
            <mxPoint x="164" y="296" as="sourcePoint" />
            <mxPoint x="216" y="296" as="targetPoint" />
            <Array as="points">
              <mxPoint x="180" y="380" />
            </Array>
          </mxGeometry>
        </mxCell>
        <mxCell id="3nH2F0Kgi0OkO7_tEUe0-28" value="" style="curved=1;endArrow=classic;html=1;rounded=0;exitX=1;exitY=0;exitDx=0;exitDy=0;entryX=0;entryY=0;entryDx=0;entryDy=0;strokeWidth=2;" parent="1" source="3nH2F0Kgi0OkO7_tEUe0-12" target="3nH2F0Kgi0OkO7_tEUe0-13" edge="1">
          <mxGeometry width="50" height="50" relative="1" as="geometry">
            <mxPoint x="164" y="416" as="sourcePoint" />
            <mxPoint x="216" y="416" as="targetPoint" />
            <Array as="points">
              <mxPoint x="260" y="380" />
            </Array>
          </mxGeometry>
        </mxCell>
        <mxCell id="3nH2F0Kgi0OkO7_tEUe0-29" value="" style="curved=1;endArrow=classic;html=1;rounded=0;exitX=1;exitY=0;exitDx=0;exitDy=0;entryX=0;entryY=0;entryDx=0;entryDy=0;strokeWidth=2;" parent="1" source="3nH2F0Kgi0OkO7_tEUe0-2" target="3nH2F0Kgi0OkO7_tEUe0-3" edge="1">
          <mxGeometry width="50" height="50" relative="1" as="geometry">
            <mxPoint x="204" y="96" as="sourcePoint" />
            <mxPoint x="256" y="96" as="targetPoint" />
            <Array as="points">
              <mxPoint x="460" y="60" />
            </Array>
          </mxGeometry>
        </mxCell>
        <mxCell id="3nH2F0Kgi0OkO7_tEUe0-30" value="" style="curved=1;endArrow=classic;html=1;rounded=0;exitX=1;exitY=0;exitDx=0;exitDy=0;entryX=0;entryY=0;entryDx=0;entryDy=0;strokeWidth=2;" parent="1" source="3nH2F0Kgi0OkO7_tEUe0-4" target="3nH2F0Kgi0OkO7_tEUe0-5" edge="1">
          <mxGeometry width="50" height="50" relative="1" as="geometry">
            <mxPoint x="164" y="136" as="sourcePoint" />
            <mxPoint x="216" y="136" as="targetPoint" />
            <Array as="points">
              <mxPoint x="180" y="220" />
            </Array>
          </mxGeometry>
        </mxCell>
        <mxCell id="3nH2F0Kgi0OkO7_tEUe0-31" value="" style="curved=1;endArrow=classic;html=1;rounded=0;exitX=1;exitY=0;exitDx=0;exitDy=0;entryX=0;entryY=0;entryDx=0;entryDy=0;strokeWidth=2;" parent="1" source="3nH2F0Kgi0OkO7_tEUe0-4" target="3nH2F0Kgi0OkO7_tEUe0-6" edge="1">
          <mxGeometry width="50" height="50" relative="1" as="geometry">
            <mxPoint x="164" y="256" as="sourcePoint" />
            <mxPoint x="216" y="256" as="targetPoint" />
            <Array as="points">
              <mxPoint x="220" y="180" />
            </Array>
          </mxGeometry>
        </mxCell>
        <mxCell id="3nH2F0Kgi0OkO7_tEUe0-32" value="" style="curved=1;endArrow=classic;html=1;rounded=0;exitX=1;exitY=0;exitDx=0;exitDy=0;entryX=0;entryY=0;entryDx=0;entryDy=0;strokeWidth=2;" parent="1" source="3nH2F0Kgi0OkO7_tEUe0-9" target="3nH2F0Kgi0OkO7_tEUe0-10" edge="1">
          <mxGeometry width="50" height="50" relative="1" as="geometry">
            <mxPoint x="644" y="15" as="sourcePoint" />
            <mxPoint x="696" y="15" as="targetPoint" />
            <Array as="points">
              <mxPoint x="660" y="220" />
            </Array>
          </mxGeometry>
        </mxCell>
        <mxCell id="3nH2F0Kgi0OkO7_tEUe0-33" value="" style="curved=1;endArrow=classic;html=1;rounded=0;exitX=1;exitY=0;exitDx=0;exitDy=0;entryX=0;entryY=0;entryDx=0;entryDy=0;strokeWidth=2;" parent="1" source="3nH2F0Kgi0OkO7_tEUe0-16" target="3nH2F0Kgi0OkO7_tEUe0-17" edge="1">
          <mxGeometry width="50" height="50" relative="1" as="geometry">
            <mxPoint x="364" y="296" as="sourcePoint" />
            <mxPoint x="416" y="296" as="targetPoint" />
            <Array as="points">
              <mxPoint x="460" y="380" />
            </Array>
          </mxGeometry>
        </mxCell>
        <mxCell id="3nH2F0Kgi0OkO7_tEUe0-34" value="" style="curved=1;endArrow=classic;html=1;rounded=0;exitX=1;exitY=0;exitDx=0;exitDy=0;entryX=0;entryY=0;entryDx=0;entryDy=0;strokeWidth=2;" parent="1" source="3nH2F0Kgi0OkO7_tEUe0-5" target="3nH2F0Kgi0OkO7_tEUe0-6" edge="1">
          <mxGeometry width="50" height="50" relative="1" as="geometry">
            <mxPoint x="164" y="256" as="sourcePoint" />
            <mxPoint x="216" y="256" as="targetPoint" />
            <Array as="points">
              <mxPoint x="260" y="220" />
            </Array>
          </mxGeometry>
        </mxCell>
        <mxCell id="2QkdxHthvXivjjk3Oplh-1" value="&lt;span style=&quot;font-size: 24px; font-style: italic;&quot;&gt;B&lt;/span&gt;&lt;sub style=&quot;&quot;&gt;&lt;font style=&quot;font-size: 20px;&quot;&gt;6&lt;/font&gt;&lt;/sub&gt;" style="text;html=1;align=center;verticalAlign=middle;resizable=0;points=[];autosize=1;strokeColor=none;fillColor=none;strokeWidth=1;fontFamily=Times New Roman;fontStyle=0;fontSize=24;" vertex="1" parent="1">
          <mxGeometry x="75" y="356.5" width="50" height="50" as="geometry" />
        </mxCell>
        <mxCell id="2QkdxHthvXivjjk3Oplh-2" value="&lt;var class=&quot;vector&quot;&gt;&lt;span&gt;&lt;font style=&quot;font-size: 24px;&quot;&gt;⃗&lt;/font&gt;&lt;/span&gt;&lt;/var&gt;" style="text;html=1;align=center;verticalAlign=middle;resizable=0;points=[];autosize=1;strokeColor=none;fillColor=none;fontFamily=Times New Roman;" vertex="1" parent="1">
          <mxGeometry x="90" y="353.5" width="20" height="40" as="geometry" />
        </mxCell>
        <mxCell id="2QkdxHthvXivjjk3Oplh-3" value="&lt;span style=&quot;font-size: 24px; font-style: italic;&quot;&gt;B&lt;/span&gt;&lt;sub style=&quot;&quot;&gt;&lt;font style=&quot;font-size: 20px;&quot;&gt;0&lt;/font&gt;&lt;/sub&gt;" style="text;html=1;align=center;verticalAlign=middle;resizable=0;points=[];autosize=1;strokeColor=none;fillColor=none;strokeWidth=1;fontFamily=Times New Roman;fontStyle=0;fontSize=24;" vertex="1" parent="1">
          <mxGeometry x="115" y="33" width="50" height="50" as="geometry" />
        </mxCell>
        <mxCell id="2QkdxHthvXivjjk3Oplh-4" value="&lt;var class=&quot;vector&quot;&gt;&lt;span&gt;&lt;font style=&quot;font-size: 24px;&quot;&gt;⃗&lt;/font&gt;&lt;/span&gt;&lt;/var&gt;" style="text;html=1;align=center;verticalAlign=middle;resizable=0;points=[];autosize=1;strokeColor=none;fillColor=none;fontFamily=Times New Roman;" vertex="1" parent="1">
          <mxGeometry x="130" y="30" width="20" height="40" as="geometry" />
        </mxCell>
        <mxCell id="2QkdxHthvXivjjk3Oplh-5" value="&lt;span style=&quot;font-size: 24px; font-style: italic;&quot;&gt;B&lt;/span&gt;&lt;sub style=&quot;&quot;&gt;&lt;font style=&quot;font-size: 20px;&quot;&gt;1&lt;/font&gt;&lt;/sub&gt;" style="text;html=1;align=center;verticalAlign=middle;resizable=0;points=[];autosize=1;strokeColor=none;fillColor=none;strokeWidth=1;fontFamily=Times New Roman;fontStyle=0;fontSize=24;" vertex="1" parent="1">
          <mxGeometry x="355" y="36" width="50" height="50" as="geometry" />
        </mxCell>
        <mxCell id="2QkdxHthvXivjjk3Oplh-6" value="&lt;var class=&quot;vector&quot;&gt;&lt;span&gt;&lt;font style=&quot;font-size: 24px;&quot;&gt;⃗&lt;/font&gt;&lt;/span&gt;&lt;/var&gt;" style="text;html=1;align=center;verticalAlign=middle;resizable=0;points=[];autosize=1;strokeColor=none;fillColor=none;fontFamily=Times New Roman;" vertex="1" parent="1">
          <mxGeometry x="370" y="33" width="20" height="40" as="geometry" />
        </mxCell>
        <mxCell id="2QkdxHthvXivjjk3Oplh-7" value="&lt;span style=&quot;font-size: 24px; font-style: italic;&quot;&gt;B&lt;/span&gt;&lt;sub style=&quot;&quot;&gt;&lt;font style=&quot;font-size: 20px;&quot;&gt;2&lt;/font&gt;&lt;/sub&gt;" style="text;html=1;align=center;verticalAlign=middle;resizable=0;points=[];autosize=1;strokeColor=none;fillColor=none;strokeWidth=1;fontFamily=Times New Roman;fontStyle=0;fontSize=24;" vertex="1" parent="1">
          <mxGeometry x="555" y="36" width="50" height="50" as="geometry" />
        </mxCell>
        <mxCell id="2QkdxHthvXivjjk3Oplh-8" value="&lt;var class=&quot;vector&quot;&gt;&lt;span&gt;&lt;font style=&quot;font-size: 24px;&quot;&gt;⃗&lt;/font&gt;&lt;/span&gt;&lt;/var&gt;" style="text;html=1;align=center;verticalAlign=middle;resizable=0;points=[];autosize=1;strokeColor=none;fillColor=none;fontFamily=Times New Roman;" vertex="1" parent="1">
          <mxGeometry x="570" y="33" width="20" height="40" as="geometry" />
        </mxCell>
        <mxCell id="2QkdxHthvXivjjk3Oplh-9" value="&lt;span style=&quot;font-size: 24px; font-style: italic;&quot;&gt;B&lt;/span&gt;&lt;sub style=&quot;&quot;&gt;&lt;font style=&quot;font-size: 20px;&quot;&gt;3&lt;/font&gt;&lt;/sub&gt;" style="text;html=1;align=center;verticalAlign=middle;resizable=0;points=[];autosize=1;strokeColor=none;fillColor=none;strokeWidth=1;fontFamily=Times New Roman;fontStyle=0;fontSize=24;" vertex="1" parent="1">
          <mxGeometry x="75" y="193" width="50" height="50" as="geometry" />
        </mxCell>
        <mxCell id="2QkdxHthvXivjjk3Oplh-10" value="&lt;var class=&quot;vector&quot;&gt;&lt;span&gt;&lt;font style=&quot;font-size: 24px;&quot;&gt;⃗&lt;/font&gt;&lt;/span&gt;&lt;/var&gt;" style="text;html=1;align=center;verticalAlign=middle;resizable=0;points=[];autosize=1;strokeColor=none;fillColor=none;fontFamily=Times New Roman;" vertex="1" parent="1">
          <mxGeometry x="90" y="190" width="20" height="40" as="geometry" />
        </mxCell>
        <mxCell id="2QkdxHthvXivjjk3Oplh-11" value="&lt;span style=&quot;font-size: 24px; font-style: italic;&quot;&gt;B&lt;/span&gt;&lt;sub style=&quot;&quot;&gt;&lt;font style=&quot;font-size: 20px;&quot;&gt;4&lt;/font&gt;&lt;/sub&gt;" style="text;html=1;align=center;verticalAlign=middle;resizable=0;points=[];autosize=1;strokeColor=none;fillColor=none;strokeWidth=1;fontFamily=Times New Roman;fontStyle=0;fontSize=24;" vertex="1" parent="1">
          <mxGeometry x="355" y="196" width="50" height="50" as="geometry" />
        </mxCell>
        <mxCell id="2QkdxHthvXivjjk3Oplh-12" value="&lt;var class=&quot;vector&quot;&gt;&lt;span&gt;&lt;font style=&quot;font-size: 24px;&quot;&gt;⃗&lt;/font&gt;&lt;/span&gt;&lt;/var&gt;" style="text;html=1;align=center;verticalAlign=middle;resizable=0;points=[];autosize=1;strokeColor=none;fillColor=none;fontFamily=Times New Roman;" vertex="1" parent="1">
          <mxGeometry x="370" y="193" width="20" height="40" as="geometry" />
        </mxCell>
        <mxCell id="2QkdxHthvXivjjk3Oplh-13" value="&lt;span style=&quot;font-size: 24px; font-style: italic;&quot;&gt;B&lt;/span&gt;&lt;sub style=&quot;&quot;&gt;&lt;font style=&quot;font-size: 20px;&quot;&gt;5&lt;/font&gt;&lt;/sub&gt;" style="text;html=1;align=center;verticalAlign=middle;resizable=0;points=[];autosize=1;strokeColor=none;fillColor=none;strokeWidth=1;fontFamily=Times New Roman;fontStyle=0;fontSize=24;" vertex="1" parent="1">
          <mxGeometry x="555" y="194.5" width="50" height="50" as="geometry" />
        </mxCell>
        <mxCell id="2QkdxHthvXivjjk3Oplh-14" value="&lt;var class=&quot;vector&quot;&gt;&lt;span&gt;&lt;font style=&quot;font-size: 24px;&quot;&gt;⃗&lt;/font&gt;&lt;/span&gt;&lt;/var&gt;" style="text;html=1;align=center;verticalAlign=middle;resizable=0;points=[];autosize=1;strokeColor=none;fillColor=none;fontFamily=Times New Roman;" vertex="1" parent="1">
          <mxGeometry x="570" y="191.5" width="20" height="40" as="geometry" />
        </mxCell>
        <mxCell id="2QkdxHthvXivjjk3Oplh-15" value="&lt;span style=&quot;font-size: 24px; font-style: italic;&quot;&gt;B&lt;/span&gt;&lt;sub style=&quot;&quot;&gt;&lt;font style=&quot;font-size: 20px;&quot;&gt;7&lt;/font&gt;&lt;/sub&gt;" style="text;html=1;align=center;verticalAlign=middle;resizable=0;points=[];autosize=1;strokeColor=none;fillColor=none;strokeWidth=1;fontFamily=Times New Roman;fontStyle=0;fontSize=24;" vertex="1" parent="1">
          <mxGeometry x="355" y="358" width="50" height="50" as="geometry" />
        </mxCell>
        <mxCell id="2QkdxHthvXivjjk3Oplh-16" value="&lt;var class=&quot;vector&quot;&gt;&lt;span&gt;&lt;font style=&quot;font-size: 24px;&quot;&gt;⃗&lt;/font&gt;&lt;/span&gt;&lt;/var&gt;" style="text;html=1;align=center;verticalAlign=middle;resizable=0;points=[];autosize=1;strokeColor=none;fillColor=none;fontFamily=Times New Roman;" vertex="1" parent="1">
          <mxGeometry x="370" y="355" width="20" height="40" as="geometry" />
        </mxCell>
      </root>
    </mxGraphModel>
  </diagram>
</mxfile>
